<svg _ngcontent-urh-c53="" xmlns="http://www.w3.org/2000/svg" xmlns:xlink="http://www.w3.org/1999/xlink" width="31px" height="31px"  class="ng-tns-c53-1">
<path _ngcontent-urh-c53="" fill-rule="evenodd" fill="rgb(0, 0, 0)" d="M15.500,31.000 C6.939,31.000 -0.000,24.061 -0.000,15.500 C-0.000,6.940 6.939,0.000 15.500,0.000 C24.060,0.000 31.000,6.940 31.000,15.500 C31.000,24.061 24.060,31.000 15.500,31.000 ZM15.500,2.067 C8.081,2.067 2.066,8.081 2.066,15.500 C2.066,22.919 8.081,28.934 15.500,28.934 C22.919,28.934 28.933,22.919 28.933,15.500 C28.933,8.081 22.919,2.067 15.500,2.067 ZM24.600,16.748 L21.291,20.196 L25.824,15.867 L19.721,22.182 L25.431,16.566 L21.359,20.984 L25.446,17.032 L20.470,22.191 L25.769,17.076 L22.537,20.418 L27.564,15.685 C27.563,15.698 27.563,15.711 27.563,15.724 L22.670,20.818 L27.540,16.278 L22.118,21.813 L27.503,16.737 C27.499,16.781 27.493,16.824 27.488,16.867 L25.666,18.870 L27.442,17.232 C27.438,17.255 27.436,17.277 27.432,17.299 L24.570,20.236 L27.404,17.476 C27.388,17.572 27.371,17.668 27.353,17.764 L17.930,27.321 C17.145,27.482 16.332,27.566 15.500,27.566 C8.836,27.566 3.434,22.164 3.434,15.500 C3.434,14.753 3.502,14.021 3.633,13.311 L13.314,3.632 C13.321,3.631 13.328,3.630 13.335,3.628 L11.491,5.502 L13.401,3.757 L9.867,7.436 L12.809,4.713 L7.851,9.799 L11.937,6.117 L6.164,11.852 L13.553,4.807 L9.834,8.757 L12.113,6.740 L7.290,11.687 C7.290,11.687 12.833,6.270 13.058,6.038 C13.284,5.807 10.201,9.024 10.201,9.024 L11.520,7.965 L16.039,3.624 L15.322,4.547 L11.112,8.920 L14.955,5.272 L12.638,7.702 L16.269,4.299 L9.328,11.419 L13.099,7.792 L10.719,10.341 L14.581,6.620 L12.619,8.766 L14.548,6.949 L9.770,11.850 L16.628,5.190 L14.640,7.310 L18.056,3.966 L14.178,8.212 L15.137,7.523 L11.828,10.971 L16.361,6.643 L10.258,12.957 L15.968,7.341 L11.896,11.759 L15.983,7.807 L11.007,12.966 L16.306,7.851 L13.074,11.194 L18.485,6.098 L13.207,11.593 L18.077,7.053 L12.655,12.588 L18.769,6.826 L16.203,9.645 L18.532,7.497 L15.107,11.011 L19.735,6.505 L18.022,8.262 L19.500,6.907 L7.939,18.632 L19.219,7.355 L16.366,10.255 L18.276,8.510 L14.742,12.189 L17.684,9.465 L12.726,14.552 L16.812,10.870 L11.039,16.604 L18.428,9.560 L14.709,13.509 L16.988,11.492 L12.165,16.440 C12.165,16.440 17.708,11.022 17.934,10.791 C18.159,10.559 15.076,13.776 15.076,13.776 L16.193,12.879 L15.699,13.392 L19.543,9.744 L17.226,12.175 L20.857,8.771 L13.916,15.892 L17.687,12.264 L15.307,14.813 L19.169,11.093 L17.207,13.239 L19.136,11.421 L14.358,16.323 L21.216,9.662 L19.228,11.782 L22.644,8.439 L18.766,12.684 L19.725,11.996 L16.416,15.443 L20.949,11.115 L14.846,17.430 L20.556,11.814 L16.484,16.231 L20.571,12.280 L15.595,17.438 L20.894,12.324 L17.662,15.666 L23.073,10.571 L17.795,16.066 L22.665,11.525 L17.243,17.061 L23.357,11.298 L20.791,14.117 L23.120,11.969 L19.695,15.483 L24.323,10.977 L22.610,12.734 L24.088,11.379 L12.527,23.104 L23.807,11.827 L20.954,14.727 L22.864,12.982 L19.330,16.661 L22.272,13.938 L17.314,19.024 L21.400,15.342 L15.627,21.076 L23.016,14.032 L19.297,17.981 L21.576,15.965 L16.753,20.912 C16.753,20.912 22.296,15.494 22.522,15.263 C22.747,15.032 19.664,18.248 19.664,18.248 L20.983,17.190 L25.502,12.848 L24.785,13.772 L20.575,18.144 L24.418,14.497 L22.101,16.927 L25.732,13.523 L18.791,20.644 L22.563,17.016 L20.182,19.565 L24.044,15.845 L22.082,17.991 L24.011,16.174 L19.233,21.075 L26.091,14.414 L24.103,16.534 L27.372,13.335 C27.373,13.340 27.374,13.345 27.375,13.349 L23.641,17.437 L24.600,16.748 ZM16.395,12.717 L16.193,12.879 L19.910,9.020 L16.395,12.717 ZM7.593,6.386 L7.021,7.006 L8.068,5.994 C8.291,5.820 8.520,5.653 8.756,5.494 L6.132,8.214 L9.322,5.135 C9.427,5.072 9.533,5.011 9.640,4.951 L8.199,6.441 L9.970,4.774 C10.181,4.665 10.396,4.562 10.614,4.465 L8.332,6.841 L11.097,4.263 C11.193,4.226 11.289,4.189 11.386,4.154 L7.780,7.836 L11.854,3.995 C11.986,3.954 12.119,3.914 12.252,3.877 L11.328,4.893 L12.502,3.810 C12.553,3.797 12.604,3.785 12.655,3.773 L10.232,6.259 L12.826,3.732 C12.928,3.709 13.030,3.687 13.133,3.667 L3.635,13.301 C4.140,10.559 5.571,8.142 7.593,6.386 ZM27.312,17.973 L25.829,19.479 L27.271,18.163 C27.265,18.189 27.259,18.215 27.253,18.241 L24.205,21.413 L27.136,18.701 C27.136,18.701 27.136,18.702 27.136,18.702 L22.189,23.776 L26.275,20.094 L20.502,25.829 L26.748,19.874 C26.720,19.947 26.691,20.019 26.661,20.091 L24.172,22.734 L26.330,20.825 C26.324,20.837 26.318,20.848 26.312,20.860 L21.629,25.665 C21.629,25.665 24.369,22.986 26.074,21.315 C26.037,21.383 26.000,21.450 25.961,21.516 C25.248,22.261 24.539,23.001 24.539,23.001 L25.535,22.201 C23.803,24.790 21.096,26.671 17.939,27.319 L27.318,17.943 C27.316,17.953 27.314,17.963 27.312,17.973 Z" class="ng-tns-c53-1"></path></svg>